<svg width="169" height="112" viewBox="0 0 169 112" fill="none" xmlns="http://www.w3.org/2000/svg">
<path d="M20.7504 89.656H31.4064V23.992H20.7504V22.648H41.2944L73.7424 74.968H73.9344V23.992H63.2784V22.648H86.0304V23.992H75.3744V92.344H73.4544L33.0384 27.928H32.8464V89.656H43.5024V91H20.7504V89.656ZM98.0956 22.648H143.888L103.664 89.656H124.784C127.984 89.656 130.448 89.208 132.176 88.312C133.904 87.352 135.44 86.232 136.784 84.952C138.192 83.672 139.632 81.72 141.104 79.096C142.576 76.472 143.664 73.432 144.368 69.976H145.424V91H92.3356L132.368 23.992H117.488C112.304 23.992 108.272 25.368 105.392 28.12C102.512 30.808 100.432 34.552 99.1516 39.352H98.0956V22.648Z" fill="white"/>
</svg>
